# xmcd
# Track frame offsets:
# 150
# 14460
# 27805
# 41944
# 67422
# 80567
# 95370
# 112775
# 130822
# 145695
# 160724
# 171867
# 189800
# 212927
#
# Disc length: 3172 seconds
# Revision: 0
# Processed by: cddbd v1.4PL0 Copyright (c) Steve Scherf et al.
# Submitted via: VisiTrax 2.9.5.181 - For more info visit www.synapsa.com
#
DISCID=bb0c620e
DTITLE=Texas Groove - Recycled
DYEAR=1999
DGENRE=Blues
TTITLE0=Lie no better
TTITLE1=Wet match
TTITLE2=Crazy ´bout you
TTITLE3=Dammyour eyes
TTITLE4=I walk alone
TTITLE5=My baby´s lovin
TTITLE6=Memphis in the meantime
TTITLE7=Miss you fever
TTITLE8=Skaky ground
TTITLE9=Cajun waltz
TTITLE10=I´m a real man
TTITLE11=Have a talk whit god
TTITLE12=The very thing that mekes you rich
TTITLE13=Good in blues
EXTD=
EXTT0=
EXTT1=
EXTT2=
EXTT3=
EXTT4=
EXTT5=
EXTT6=
EXTT7=
EXTT8=
EXTT9=
EXTT10=
EXTT11=
EXTT12=
EXTT13=
PLAYORDER=
